<mxfile host="app.diagrams.net" modified="2023-05-20T12:52:06.123Z" agent="Mozilla/5.0 (Windows NT 10.0; Win64; x64) AppleWebKit/537.36 (KHTML, like Gecko) Chrome/112.0.0.0 Safari/537.36 OPR/98.0.0.0" etag="feW4-YeRrdRIp6l4xe7E" version="21.3.2" type="device">
  <diagram name="Σελίδα-1" id="h-o1yX0LM2CVH-15DDE9">
    <mxGraphModel dx="1886" dy="1024" grid="1" gridSize="10" guides="1" tooltips="1" connect="1" arrows="1" fold="1" page="1" pageScale="1" pageWidth="1654" pageHeight="1169" math="0" shadow="0">
      <root>
        <mxCell id="0" />
        <mxCell id="1" parent="0" />
        <mxCell id="8t45LIVKKecfM5tV3rzv-11" value="" style="rounded=0;orthogonalLoop=1;jettySize=auto;html=1;strokeColor=#000000;fontColor=#000000;exitX=1;exitY=0.3333333333333333;exitDx=0;exitDy=0;exitPerimeter=0;entryX=0.013;entryY=0.526;entryDx=0;entryDy=0;entryPerimeter=0;" parent="1" source="8t45LIVKKecfM5tV3rzv-1" target="bhG3UqWKx_D3YFyvvtK5-3" edge="1">
          <mxGeometry relative="1" as="geometry">
            <mxPoint x="410" y="400" as="targetPoint" />
          </mxGeometry>
        </mxCell>
        <mxCell id="8t45LIVKKecfM5tV3rzv-1" value="Χρήστης" style="shape=umlActor;verticalLabelPosition=bottom;verticalAlign=top;html=1;fontColor=#000000;" parent="1" vertex="1">
          <mxGeometry x="180" y="450" width="30" height="60" as="geometry" />
        </mxCell>
        <mxCell id="bhG3UqWKx_D3YFyvvtK5-1" value="&lt;font&gt;Εμφάνισε&lt;/font&gt;" style="ellipse;shape=umlControl;whiteSpace=wrap;html=1;strokeColor=#000000;fontColor=#000000;" vertex="1" parent="1">
          <mxGeometry x="550" y="90" width="70" height="80" as="geometry" />
        </mxCell>
        <mxCell id="bhG3UqWKx_D3YFyvvtK5-2" value="" style="rounded=0;orthogonalLoop=1;jettySize=auto;html=1;strokeColor=#000000;fontColor=#000000;exitX=0.528;exitY=0.982;exitDx=0;exitDy=0;exitPerimeter=0;entryX=0.522;entryY=-0.01;entryDx=0;entryDy=0;entryPerimeter=0;" edge="1" parent="1" source="bhG3UqWKx_D3YFyvvtK5-1" target="bhG3UqWKx_D3YFyvvtK5-3">
          <mxGeometry relative="1" as="geometry">
            <mxPoint x="280" y="340" as="sourcePoint" />
            <mxPoint x="580" y="250" as="targetPoint" />
          </mxGeometry>
        </mxCell>
        <mxCell id="bhG3UqWKx_D3YFyvvtK5-3" value="&lt;font style=&quot;font-size: 14px;&quot;&gt;Σελίδα &quot;Κείμενα χρηστών&quot;&lt;/font&gt;" style="shape=umlBoundary;whiteSpace=wrap;html=1;strokeColor=#000000;fontColor=#000000;fontSize=14;" vertex="1" parent="1">
          <mxGeometry x="535" y="350" width="100" height="80" as="geometry" />
        </mxCell>
        <mxCell id="bhG3UqWKx_D3YFyvvtK5-5" value="" style="rounded=0;orthogonalLoop=1;jettySize=auto;html=1;strokeColor=#000000;fontColor=#000000;exitX=0.986;exitY=0.59;exitDx=0;exitDy=0;exitPerimeter=0;entryX=0;entryY=0.5;entryDx=0;entryDy=0;" edge="1" parent="1" source="bhG3UqWKx_D3YFyvvtK5-1" target="bhG3UqWKx_D3YFyvvtK5-7">
          <mxGeometry relative="1" as="geometry">
            <mxPoint x="660" y="129.41000000000003" as="sourcePoint" />
            <mxPoint x="783.1599999999994" y="137.20000000000005" as="targetPoint" />
          </mxGeometry>
        </mxCell>
        <mxCell id="bhG3UqWKx_D3YFyvvtK5-7" value="&lt;font style=&quot;font-size: 15px;&quot;&gt;Server&lt;/font&gt;" style="ellipse;shape=umlEntity;whiteSpace=wrap;html=1;strokeColor=#000000;fontColor=#000000;fontSize=15;" vertex="1" parent="1">
          <mxGeometry x="820" y="90" width="80" height="80" as="geometry" />
        </mxCell>
        <mxCell id="bhG3UqWKx_D3YFyvvtK5-8" value="Επιλέγει κείμενο&amp;nbsp;" style="edgeLabel;html=1;align=center;verticalAlign=middle;resizable=0;points=[];fontColor=#000000;fontSize=14;rotation=-15;" vertex="1" connectable="0" parent="1">
          <mxGeometry x="380" y="410" as="geometry" />
        </mxCell>
        <mxCell id="bhG3UqWKx_D3YFyvvtK5-9" value="" style="rounded=0;orthogonalLoop=1;jettySize=auto;html=1;strokeColor=#000000;fontColor=#000000;exitX=1.019;exitY=0.51;exitDx=0;exitDy=0;exitPerimeter=0;entryX=-0.002;entryY=0.619;entryDx=0;entryDy=0;entryPerimeter=0;" edge="1" parent="1" source="bhG3UqWKx_D3YFyvvtK5-3" target="bhG3UqWKx_D3YFyvvtK5-10">
          <mxGeometry relative="1" as="geometry">
            <mxPoint x="592" y="179" as="sourcePoint" />
            <mxPoint x="890" y="391" as="targetPoint" />
          </mxGeometry>
        </mxCell>
        <mxCell id="bhG3UqWKx_D3YFyvvtK5-10" value="&lt;font&gt;Εμφάνισε&lt;/font&gt;" style="ellipse;shape=umlControl;whiteSpace=wrap;html=1;strokeColor=#000000;fontColor=#000000;" vertex="1" parent="1">
          <mxGeometry x="780" y="340" width="70" height="80" as="geometry" />
        </mxCell>
        <mxCell id="bhG3UqWKx_D3YFyvvtK5-11" value="" style="rounded=0;orthogonalLoop=1;jettySize=auto;html=1;strokeColor=#000000;fontColor=#000000;exitX=0.219;exitY=0.994;exitDx=0;exitDy=0;exitPerimeter=0;entryX=1.006;entryY=0.54;entryDx=0;entryDy=0;entryPerimeter=0;" edge="1" parent="1" source="bhG3UqWKx_D3YFyvvtK5-10" target="bhG3UqWKx_D3YFyvvtK5-13">
          <mxGeometry relative="1" as="geometry">
            <mxPoint x="730" y="440" as="sourcePoint" />
            <mxPoint x="650" y="510" as="targetPoint" />
          </mxGeometry>
        </mxCell>
        <mxCell id="bhG3UqWKx_D3YFyvvtK5-12" value="" style="rounded=0;orthogonalLoop=1;jettySize=auto;html=1;strokeColor=#000000;fontColor=#000000;exitX=0.648;exitY=0.194;exitDx=0;exitDy=0;exitPerimeter=0;entryX=0.5;entryY=1;entryDx=0;entryDy=0;" edge="1" parent="1" source="bhG3UqWKx_D3YFyvvtK5-10" target="bhG3UqWKx_D3YFyvvtK5-7">
          <mxGeometry relative="1" as="geometry">
            <mxPoint x="805" y="430" as="sourcePoint" />
            <mxPoint x="660" y="520" as="targetPoint" />
          </mxGeometry>
        </mxCell>
        <mxCell id="bhG3UqWKx_D3YFyvvtK5-13" value="&lt;font style=&quot;font-size: 14px;&quot;&gt;Σελίδα &quot;Επιλεγμένο κείμενο&quot;&lt;/font&gt;" style="shape=umlBoundary;whiteSpace=wrap;html=1;strokeColor=#000000;fontColor=#000000;fontSize=14;" vertex="1" parent="1">
          <mxGeometry x="535" y="520" width="100" height="80" as="geometry" />
        </mxCell>
        <mxCell id="bhG3UqWKx_D3YFyvvtK5-14" value="" style="rounded=0;orthogonalLoop=1;jettySize=auto;html=1;strokeColor=#000000;fontColor=#000000;exitX=1;exitY=0.3333333333333333;exitDx=0;exitDy=0;exitPerimeter=0;entryX=0.002;entryY=0.525;entryDx=0;entryDy=0;entryPerimeter=0;" edge="1" parent="1" source="8t45LIVKKecfM5tV3rzv-1" target="bhG3UqWKx_D3YFyvvtK5-13">
          <mxGeometry relative="1" as="geometry">
            <mxPoint x="270" y="400" as="sourcePoint" />
            <mxPoint x="546" y="402" as="targetPoint" />
          </mxGeometry>
        </mxCell>
        <mxCell id="bhG3UqWKx_D3YFyvvtK5-15" value="Καταχωρεί αξιολόγηση" style="edgeLabel;html=1;align=center;verticalAlign=middle;resizable=0;points=[];fontColor=#000000;fontSize=14;rotation=15;" vertex="1" connectable="0" parent="1">
          <mxGeometry x="370" y="500" as="geometry" />
        </mxCell>
        <mxCell id="bhG3UqWKx_D3YFyvvtK5-16" value="" style="rounded=0;orthogonalLoop=1;jettySize=auto;html=1;strokeColor=#000000;fontColor=#000000;exitX=0.995;exitY=0.607;exitDx=0;exitDy=0;exitPerimeter=0;entryX=0.017;entryY=0.618;entryDx=0;entryDy=0;entryPerimeter=0;" edge="1" parent="1" source="bhG3UqWKx_D3YFyvvtK5-13" target="bhG3UqWKx_D3YFyvvtK5-17">
          <mxGeometry relative="1" as="geometry">
            <mxPoint x="979" y="570" as="sourcePoint" />
            <mxPoint x="800" y="570" as="targetPoint" />
          </mxGeometry>
        </mxCell>
        <mxCell id="bhG3UqWKx_D3YFyvvtK5-17" value="&lt;font&gt;Ανανέωσε σύνολο αξιολογήσεων κειμένου&lt;/font&gt;" style="ellipse;shape=umlControl;whiteSpace=wrap;html=1;strokeColor=#000000;fontColor=#000000;" vertex="1" parent="1">
          <mxGeometry x="891.5" y="450" width="107" height="120" as="geometry" />
        </mxCell>
        <mxCell id="bhG3UqWKx_D3YFyvvtK5-20" value="" style="rounded=0;orthogonalLoop=1;jettySize=auto;html=1;strokeColor=#000000;fontColor=#000000;exitX=0.402;exitY=0.136;exitDx=0;exitDy=0;exitPerimeter=0;entryX=0.672;entryY=1.064;entryDx=0;entryDy=0;entryPerimeter=0;" edge="1" parent="1" source="bhG3UqWKx_D3YFyvvtK5-17" target="bhG3UqWKx_D3YFyvvtK5-7">
          <mxGeometry relative="1" as="geometry">
            <mxPoint x="877" y="630" as="sourcePoint" />
            <mxPoint x="873" y="690" as="targetPoint" />
          </mxGeometry>
        </mxCell>
        <mxCell id="bhG3UqWKx_D3YFyvvtK5-21" value="" style="rounded=0;orthogonalLoop=1;jettySize=auto;html=1;strokeColor=#000000;fontColor=#000000;entryX=1.001;entryY=0.601;entryDx=0;entryDy=0;entryPerimeter=0;exitX=0.068;exitY=0.754;exitDx=0;exitDy=0;exitPerimeter=0;" edge="1" parent="1" source="bhG3UqWKx_D3YFyvvtK5-37" target="bhG3UqWKx_D3YFyvvtK5-22">
          <mxGeometry relative="1" as="geometry">
            <mxPoint x="790" y="640" as="sourcePoint" />
            <mxPoint x="650" y="680" as="targetPoint" />
          </mxGeometry>
        </mxCell>
        <mxCell id="bhG3UqWKx_D3YFyvvtK5-22" value="&lt;font style=&quot;font-size: 14px;&quot;&gt;Σελίδα &quot;Συγγραφή σχολίου&quot;&lt;/font&gt;" style="shape=umlBoundary;whiteSpace=wrap;html=1;strokeColor=#000000;fontColor=#000000;fontSize=14;" vertex="1" parent="1">
          <mxGeometry x="535" y="710" width="100" height="80" as="geometry" />
        </mxCell>
        <mxCell id="bhG3UqWKx_D3YFyvvtK5-23" value="" style="rounded=0;orthogonalLoop=1;jettySize=auto;html=1;strokeColor=#000000;fontColor=#000000;exitX=1;exitY=0.3333333333333333;exitDx=0;exitDy=0;exitPerimeter=0;entryX=-0.031;entryY=0.562;entryDx=0;entryDy=0;entryPerimeter=0;" edge="1" parent="1" source="8t45LIVKKecfM5tV3rzv-1" target="bhG3UqWKx_D3YFyvvtK5-22">
          <mxGeometry relative="1" as="geometry">
            <mxPoint x="220" y="480" as="sourcePoint" />
            <mxPoint x="545" y="572" as="targetPoint" />
          </mxGeometry>
        </mxCell>
        <mxCell id="bhG3UqWKx_D3YFyvvtK5-24" value="Καταχωρεί σχόλιο" style="edgeLabel;html=1;align=center;verticalAlign=middle;resizable=0;points=[];fontColor=#000000;fontSize=14;rotation=40;" vertex="1" connectable="0" parent="1">
          <mxGeometry x="380" y="600" as="geometry" />
        </mxCell>
        <mxCell id="bhG3UqWKx_D3YFyvvtK5-25" value="" style="rounded=0;orthogonalLoop=1;jettySize=auto;html=1;strokeColor=#000000;fontColor=#000000;exitX=1.008;exitY=0.716;exitDx=0;exitDy=0;exitPerimeter=0;entryX=-0.005;entryY=0.477;entryDx=0;entryDy=0;entryPerimeter=0;" edge="1" parent="1" source="bhG3UqWKx_D3YFyvvtK5-22" target="bhG3UqWKx_D3YFyvvtK5-26">
          <mxGeometry relative="1" as="geometry">
            <mxPoint x="700" y="959" as="sourcePoint" />
            <mxPoint x="1040" y="760" as="targetPoint" />
          </mxGeometry>
        </mxCell>
        <mxCell id="bhG3UqWKx_D3YFyvvtK5-26" value="&lt;font&gt;Προσθήκη σχολίου στο σύνολο σχολίων του κειμένου&lt;/font&gt;" style="ellipse;shape=umlControl;whiteSpace=wrap;html=1;strokeColor=#000000;fontColor=#000000;" vertex="1" parent="1">
          <mxGeometry x="1090" y="700" width="120" height="130" as="geometry" />
        </mxCell>
        <mxCell id="bhG3UqWKx_D3YFyvvtK5-27" value="" style="rounded=0;orthogonalLoop=1;jettySize=auto;html=1;strokeColor=#000000;fontColor=#000000;exitX=0.518;exitY=0.196;exitDx=0;exitDy=0;exitPerimeter=0;entryX=1;entryY=1;entryDx=0;entryDy=0;" edge="1" parent="1" source="bhG3UqWKx_D3YFyvvtK5-26" target="bhG3UqWKx_D3YFyvvtK5-7">
          <mxGeometry relative="1" as="geometry">
            <mxPoint x="951" y="581" as="sourcePoint" />
            <mxPoint x="953" y="610" as="targetPoint" />
          </mxGeometry>
        </mxCell>
        <mxCell id="bhG3UqWKx_D3YFyvvtK5-34" value="&lt;font&gt;Εμφάνισε μήνυμα για την επιτυχή καταχώρηση του σχολίου&lt;/font&gt;" style="ellipse;shape=umlControl;whiteSpace=wrap;html=1;strokeColor=#000000;fontColor=#000000;" vertex="1" parent="1">
          <mxGeometry x="880" y="850" width="110" height="120" as="geometry" />
        </mxCell>
        <mxCell id="bhG3UqWKx_D3YFyvvtK5-35" value="" style="rounded=0;orthogonalLoop=1;jettySize=auto;html=1;strokeColor=#000000;fontColor=#000000;exitX=0.082;exitY=0.829;exitDx=0;exitDy=0;exitPerimeter=0;entryX=0.929;entryY=0.342;entryDx=0;entryDy=0;entryPerimeter=0;" edge="1" parent="1" source="bhG3UqWKx_D3YFyvvtK5-26" target="bhG3UqWKx_D3YFyvvtK5-34">
          <mxGeometry relative="1" as="geometry">
            <mxPoint x="970" y="860" as="sourcePoint" />
            <mxPoint x="766" y="951" as="targetPoint" />
          </mxGeometry>
        </mxCell>
        <mxCell id="bhG3UqWKx_D3YFyvvtK5-37" value="&lt;font&gt;Εμφάνισε&lt;/font&gt;" style="ellipse;shape=umlControl;whiteSpace=wrap;html=1;strokeColor=#000000;fontColor=#000000;" vertex="1" parent="1">
          <mxGeometry x="750" y="605" width="70" height="80" as="geometry" />
        </mxCell>
        <mxCell id="bhG3UqWKx_D3YFyvvtK5-38" value="" style="rounded=0;orthogonalLoop=1;jettySize=auto;html=1;strokeColor=#000000;fontColor=#000000;entryX=0.847;entryY=0.222;entryDx=0;entryDy=0;entryPerimeter=0;exitX=0.103;exitY=0.825;exitDx=0;exitDy=0;exitPerimeter=0;" edge="1" parent="1" source="bhG3UqWKx_D3YFyvvtK5-17" target="bhG3UqWKx_D3YFyvvtK5-37">
          <mxGeometry relative="1" as="geometry">
            <mxPoint x="780" y="665" as="sourcePoint" />
            <mxPoint x="645" y="768" as="targetPoint" />
          </mxGeometry>
        </mxCell>
      </root>
    </mxGraphModel>
  </diagram>
</mxfile>
